<?xml version="1.0" standalone="no"?>
<!DOCTYPE svg PUBLIC "-//W3C//DTD SVG 20010904//EN"
 "http://www.w3.org/TR/2001/REC-SVG-20010904/DTD/svg10.dtd">
<svg version="1.0" xmlns="http://www.w3.org/2000/svg"
 width="700.000000pt" height="700.000000pt" viewBox="0 0 700.000000 700.000000"
 preserveAspectRatio="xMidYMid meet">
<metadata>
Created by potrace 1.11, written by Peter Selinger 2001-2013
</metadata>
<g transform="translate(0.000000,700.000000) scale(0.100000,-0.100000)"
fill="#000000" stroke="none">
<path d="M3345 6990 c-135 -21 -236 -50 -343 -100 -138 -65 -230 -131 -358
-255 -116 -113 -165 -150 -267 -205 -67 -35 -182 -77 -238 -85 -24 -4 -48 -9
-52 -12 -5 -3 -75 -7 -156 -9 -80 -2 -168 -6 -195 -9 -528 -60 -952 -460
-1040 -980 -9 -50 -18 -165 -20 -257 -3 -92 -7 -172 -10 -176 -3 -5 -8 -24
-11 -43 -11 -61 -56 -183 -90 -245 -50 -88 -111 -167 -210 -268 -128 -132
-211 -257 -271 -407 -28 -71 -28 -70 -48 -154 -27 -108 -28 -119 -31 -260 -3
-161 11 -261 56 -398 60 -179 152 -326 297 -475 101 -104 120 -127 163 -192
107 -163 149 -309 155 -540 4 -171 8 -216 30 -312 62 -273 216 -515 433 -683
68 -51 207 -135 227 -135 6 0 21 23 34 50 18 38 28 49 39 44 50 -21 179 -63
194 -64 18 0 23 -15 8 -25 -24 -14 -74 -123 -88 -192 -9 -41 -9 -151 -1 -202
17 -102 101 -232 191 -300 190 -141 466 -128 636 31 34 32 111 130 111 142 0
4 5 12 10 19 6 7 40 59 76 117 35 58 68 105 73 105 4 0 46 -36 93 -81 l85 -80
-33 -40 c-19 -21 -34 -44 -34 -49 0 -15 133 -100 225 -144 82 -40 182 -77 232
-86 15 -2 39 -7 53 -10 102 -23 325 -26 433 -6 237 42 460 159 642 337 192
187 330 264 550 309 17 4 89 8 160 10 143 5 262 13 285 20 8 2 26 6 40 9 63
10 182 52 265 91 315 151 553 438 639 771 27 105 32 155 40 384 11 293 97 480
324 708 181 183 303 423 338 672 9 67 11 244 2 320 -13 114 -57 263 -110 372
-39 81 -119 206 -137 213 -7 3 -32 -10 -55 -28 l-40 -34 -87 91 c-70 73 -84
92 -70 98 9 4 46 27 83 50 37 24 105 67 152 96 110 69 176 136 221 227 101
206 51 456 -121 603 -50 43 -167 99 -224 108 -140 23 -260 1 -370 -67 l-45
-28 -7 22 c-16 54 -56 173 -62 188 -5 11 6 21 44 39 27 13 50 28 50 34 0 19
-83 159 -132 222 -153 198 -376 351 -608 418 -127 36 -192 44 -410 51 -156 5
-177 8 -285 42 -153 48 -267 119 -400 250 -75 73 -143 131 -210 180 -94 69
-285 148 -428 179 -81 17 -316 26 -392 14z"/>
</g>
</svg>
